<svg width="368" height="357" viewBox="0 0 368 357" fill="none" xmlns="http://www.w3.org/2000/svg">
<mask id="mask0_2029_10" style="mask-type:alpha" maskUnits="userSpaceOnUse" x="20" y="1" width="308" height="354">
<rect x="85.9072" width="249.105" height="309.531" rx="10" transform="rotate(12.4826 85.9072 0)" fill="#EBEDFF"/>
</mask>
<g mask="url(#mask0_2029_10)">
<path d="M19 0.238617H329V356.239H19V0.238617Z" fill="#FEFEFE"/>
</g>
<g clip-path="url(#clip0_2029_10)">
<path d="M249.588 318.136C249.234 318.35 248.91 318.786 248.809 319.192C248.688 319.678 248.101 319.791 246.519 319.57C245.343 319.45 244.106 319.057 243.751 318.753C243.264 318.288 243.031 318.359 242.636 319.079C242.06 320.185 240.976 320.389 240.063 319.56C239.717 319.215 239.383 319.003 239.352 319.125C239.242 319.571 239.782 321.901 240.108 322.499C240.707 323.552 240.394 323.948 239.177 323.646C236.622 323.011 234.547 325.467 235.949 327.451C236.396 328.079 236.437 328.606 236.074 329.377C235.67 330.31 235.741 330.543 236.532 330.998C237.11 331.271 237.557 331.899 237.578 332.334C237.64 332.78 238.128 333.763 238.717 334.512C239.468 335.474 239.794 336.416 239.776 338.048C239.828 345.467 246.804 347.028 250.382 340.424C250.867 339.511 251.95 338.445 253.003 337.845C253.965 337.266 254.826 336.576 254.896 336.292C254.967 336.008 255.352 335.845 255.798 335.956C256.852 336.218 257.875 335.395 257.6 334.423C257.437 333.865 257.7 333.5 258.611 332.952C259.229 332.545 259.866 331.885 259.967 331.48C260.239 330.385 258.888 328.542 257.631 328.23C256.333 327.907 256.383 327.532 257.871 326.05C259.247 324.67 259.641 323.605 258.608 324.123C257.625 324.611 256.367 323.437 256.629 322.383C256.86 321.45 256.708 321.369 255.513 321.675C254.408 321.96 251.041 320.607 251.202 319.958C251.263 319.715 251.069 319.107 250.754 318.641C250.318 317.973 250.044 317.862 249.588 318.136ZM248.214 320.723C248.285 320.956 247.951 321.088 247.464 320.967C246.693 320.776 246.572 320.918 246.523 322.327C246.405 324.365 246.527 324.567 247.488 323.816C247.924 323.45 248.207 323.348 248.157 323.551C247.986 324.241 246.882 324.698 246.03 324.487C245.34 324.315 245.239 324.032 245.551 322.775C245.863 321.517 245.771 321.193 244.98 320.738C243.986 320.233 244.341 320.019 246.216 320.098C247.716 320.126 248.071 320.257 248.214 320.723ZM254.176 322.549C254.217 322.731 253.771 322.965 253.174 323.118C252.586 323.23 252.13 323.16 252.18 322.957C252.23 322.754 251.915 322.289 251.479 321.965C250.779 321.49 250.921 321.439 252.34 321.791C253.283 321.982 254.105 322.316 254.176 322.549ZM251.971 325.532C252.174 325.582 252.619 325.349 252.964 325.003C253.348 324.668 253.48 324.658 253.278 324.952C252.54 326.362 249.346 325.698 249.709 324.238C249.86 323.63 249.931 323.69 250.256 324.46C250.602 325.321 250.643 325.331 251.209 324.438C251.775 323.546 251.775 323.546 251.716 324.478C251.666 325.026 251.768 325.482 251.971 325.532ZM242.532 323.661C242.471 323.904 242.299 323.904 242.086 323.722C241.913 323.55 241.791 323.175 241.841 322.973C241.902 322.729 242.115 322.739 242.287 322.911C242.5 323.093 242.582 323.458 242.532 323.661ZM255.165 326.541C255.085 326.865 254.852 327.109 254.609 327.048C254.406 326.998 254.395 326.694 254.597 326.4C254.84 326.115 255.073 325.872 255.154 325.892C255.235 325.912 255.246 326.216 255.165 326.541ZM244.42 332.355C244.585 334.118 243.472 335.65 242.175 335.5C240.279 335.331 240.041 332.3 241.844 331.112C243.038 330.289 244.306 330.905 244.42 332.355ZM251.72 334.168C251.885 335.931 250.773 337.464 249.475 337.314C247.711 337.134 247.353 334.59 248.891 332.905C249.842 331.85 251.586 332.628 251.72 334.168ZM247.063 337.317C247.664 339.232 244.756 340.017 243.598 338.265C242.876 337.182 242.906 336.888 243.97 336.247C244.982 335.638 246.686 336.233 247.063 337.317ZM242.291 338.845C242.9 339.685 243.743 340.282 244.594 340.493C245.446 340.705 246.47 340.572 247.401 340.114C248.232 339.718 248.992 339.433 249.113 339.463C249.803 339.634 248.751 341.268 247.344 342.253C246.048 343.137 245.45 343.29 244.233 342.987C242.489 342.554 241.393 341.421 240.944 339.587C240.353 337.114 240.808 336.84 242.291 338.845Z" fill="#262625"/>
<path d="M241.866 332.754C241.35 333.099 241.746 333.757 242.598 333.969C243.003 334.07 243.439 333.876 243.519 333.552C243.67 332.944 242.474 332.388 241.866 332.754ZM248.792 334.862C248.681 335.308 248.925 335.541 249.594 335.621C250.101 335.66 250.567 335.518 250.617 335.315C250.678 335.072 250.322 334.768 249.856 334.566C249.227 334.324 248.903 334.416 248.792 334.862ZM244.183 336.946C243.951 337.19 243.951 337.707 244.236 338.122C244.815 339.084 246.548 339.041 246.618 338.068C246.657 337.216 244.76 336.358 244.183 336.946Z" fill="#262625"/>
</g>
<g clip-path="url(#clip1_2029_10)">
<path d="M103.588 10.1364C103.234 10.3498 102.91 10.7861 102.809 11.1917C102.688 11.6784 102.101 11.7907 100.519 11.5701C99.3432 11.4503 98.106 11.0568 97.7508 10.7533C97.2636 10.2878 97.0305 10.3591 96.6363 11.0793C96.0603 12.185 94.976 12.3893 94.0626 11.5596C93.7174 11.2155 93.3826 11.0031 93.3524 11.1248C93.2416 11.571 93.7823 13.9014 94.1075 14.4989C94.7071 15.5521 94.3935 15.9479 93.1768 15.6457C90.6216 15.0109 88.5474 17.4669 89.9491 19.4515C90.3961 20.0792 90.4374 20.6062 90.0737 21.3771C89.6696 22.3102 89.741 22.5432 90.5322 22.9981C91.1104 23.2709 91.5573 23.8987 91.5782 24.3345C91.6397 24.7803 92.1277 25.7628 92.7167 26.512C93.4682 27.4737 93.794 28.4159 93.7762 30.0478C93.8279 37.4671 100.804 39.0277 104.382 32.4239C104.867 31.5109 105.95 30.445 107.003 29.8454C107.965 29.2662 108.826 28.5757 108.896 28.2918C108.967 28.0079 109.352 27.8451 109.798 27.9559C110.852 28.2179 111.875 27.3953 111.6 26.4227C111.437 25.8655 111.7 25.5002 112.611 24.9515C113.229 24.5451 113.866 23.8854 113.967 23.4798C114.239 22.3847 112.888 20.542 111.631 20.2297C110.333 19.9073 110.383 19.5322 111.871 18.0501C113.247 16.6696 113.641 15.6047 112.608 16.1232C111.625 16.6112 110.367 15.4373 110.629 14.3828C110.86 13.45 110.708 13.3691 109.513 13.675C108.408 13.9605 105.041 12.6073 105.202 11.9584C105.263 11.715 105.069 11.1072 104.754 10.6414C104.318 9.97309 104.044 9.86201 103.588 10.1364ZM102.214 12.7231C102.285 12.9561 101.951 13.0884 101.464 12.9675C100.693 12.776 100.572 12.9181 100.523 14.3271C100.405 16.3646 100.527 16.5671 101.488 15.8156C101.924 15.45 102.207 15.3483 102.157 15.5511C101.986 16.2405 100.882 16.6983 100.03 16.4868C99.3403 16.3155 99.2386 16.0318 99.5509 14.7745C99.8632 13.5172 99.7715 13.193 98.9802 12.7381C97.9861 12.2328 98.3406 12.0194 100.216 12.0977C101.716 12.1258 102.071 12.257 102.214 12.7231ZM108.176 14.5487C108.217 14.7311 107.771 14.9649 107.174 15.1178C106.586 15.2302 106.13 15.1599 106.18 14.9571C106.23 14.7543 105.915 14.2886 105.479 13.9649C104.779 13.4895 104.921 13.4386 106.34 13.7913C107.283 13.9824 108.105 14.3157 108.176 14.5487ZM105.971 17.5319C106.174 17.5823 106.619 17.3485 106.964 17.0034C107.348 16.6683 107.48 16.658 107.278 16.9522C106.54 18.3622 103.346 17.6981 103.709 16.238C103.86 15.6296 103.931 15.6903 104.256 16.4601C104.602 17.3211 104.643 17.3312 105.209 16.4384C105.775 15.5456 105.775 15.5456 105.716 16.4782C105.666 17.0256 105.768 17.4816 105.971 17.5319ZM96.5317 15.6609C96.4713 15.9042 96.299 15.9045 96.0858 15.7224C95.9133 15.5503 95.7911 15.1755 95.8415 14.9727C95.9019 14.7293 96.1148 14.7391 96.2873 14.9112C96.5005 15.0933 96.5821 15.4581 96.5317 15.6609ZM109.165 18.5407C109.085 18.8652 108.852 19.1088 108.609 19.0483C108.406 18.998 108.395 18.6939 108.597 18.3997C108.84 18.1155 109.073 17.8719 109.154 17.892C109.235 17.9122 109.246 18.2162 109.165 18.5407ZM98.4199 24.3546C98.5848 26.118 97.4721 27.6501 96.1745 27.5001C94.2789 27.3306 94.0412 24.3004 95.8436 23.1117C97.0384 22.2889 98.3063 22.9053 98.4199 24.3546ZM105.72 26.168C105.885 27.9314 104.773 29.4636 103.475 29.3135C101.711 29.1337 101.353 26.5902 102.891 24.9053C103.842 23.8498 105.586 24.6276 105.72 26.168ZM101.063 29.3172C101.664 31.2319 98.7558 32.0168 97.5977 30.265C96.8764 29.1816 96.9064 28.8876 97.9697 28.2474C98.9824 27.6377 100.686 28.2332 101.063 29.3172ZM96.2911 30.8447C96.9005 31.6851 97.7426 32.2818 98.5944 32.4934C99.4461 32.705 100.47 32.5716 101.401 32.1141C102.232 31.7176 102.992 31.4326 103.113 31.4629C103.803 31.6341 102.751 33.2676 101.344 34.2529C100.048 35.1366 99.45 35.2896 98.2332 34.9873C96.4892 34.5541 95.3928 33.4206 94.9441 31.5867C94.3525 29.1144 94.8082 28.84 96.2911 30.8447Z" fill="#262625"/>
<path d="M95.866 24.7537C95.3496 25.0991 95.7459 25.7573 96.5976 25.9689C97.0032 26.0697 97.4387 25.8764 97.5193 25.552C97.6704 24.9436 96.4736 24.3879 95.866 24.7537ZM102.792 26.8617C102.681 27.3078 102.925 27.5406 103.594 27.6207C104.101 27.6604 104.567 27.5178 104.617 27.315C104.678 27.0717 104.322 26.7682 103.856 26.5661C103.227 26.3238 102.903 26.4155 102.792 26.8617ZM98.1833 28.9465C97.9505 29.1901 97.9513 29.707 98.2357 30.1221C98.8149 31.0842 100.548 31.041 100.618 30.0679C100.657 29.2164 98.7601 28.3577 98.1833 28.9465Z" fill="#262625"/>
</g>
<path d="M285.543 63.8439C284.752 48.7689 296.494 35.7218 311.78 34.9214C327.066 34.121 340.099 45.6929 340.89 60.768L340.964 62.1789C341.734 76.8694 330.115 89.4195 315.219 90.1995C299.732 91.0104 286.344 79.1163 285.543 63.8439Z" fill="#262625"/>
<path d="M306.634 65.2655C306.624 65.2683 306.615 65.2668 306.607 65.2636C306.599 65.2592 306.592 65.2501 306.59 65.2394L304.895 56.2903C304.892 56.2758 304.9 56.2594 304.915 56.2534L309.407 54.2684C309.42 54.2645 309.436 54.2683 309.444 54.28L315.073 61.4906C315.08 61.4984 315.082 61.509 315.079 61.5196C315.077 61.5302 315.069 61.538 315.06 61.5421L312.128 62.8382C312.114 62.8425 312.097 62.8362 312.089 62.8232L311.194 61.3838L309.099 62.3095L309.103 62.3198L309.584 63.9303C309.589 63.947 309.581 63.9634 309.565 63.9711L306.634 65.2668L306.634 65.2655ZM307.594 56.2825C308.001 57.743 308.311 59.1089 308.542 60.458C308.965 60.1567 309.289 59.9974 309.76 59.8554C309.873 59.8212 310.002 59.7853 310.16 59.7459C309.293 58.8805 308.489 57.7699 307.64 56.2645L307.596 56.2834L307.594 56.2825Z" fill="#F3F3F1"/>
<path d="M309.417 54.3005C311.293 56.7034 313.169 59.1062 315.047 61.5112C314.071 61.9427 313.094 62.3746 312.118 62.8048C311.813 62.3169 311.51 61.8287 311.206 61.3408L309.053 62.2927C309.059 62.3064 309.066 62.3197 309.071 62.3335C309.231 62.8692 309.39 63.4036 309.55 63.9393L306.622 65.2326C306.057 62.2481 305.492 59.2666 304.927 56.2835L309.417 54.3005ZM308.523 60.5115C308.977 60.1825 309.308 60.0238 309.769 59.8849C309.903 59.8445 310.049 59.806 310.212 59.7642C310.209 59.7552 310.204 59.7483 310.201 59.7393C309.2 58.7402 308.387 57.5228 307.654 56.2169L307.555 56.2607C307.943 57.6468 308.27 59.0539 308.514 60.4862C308.517 60.4939 308.522 60.5021 308.524 60.5098M309.397 54.2363C309.397 54.2363 309.392 54.2379 309.39 54.2387L304.901 56.2225C304.873 56.2354 304.856 56.2656 304.863 56.2959C305.427 59.279 305.991 62.2609 306.557 65.245C306.561 65.265 306.575 65.2819 306.593 65.2917C306.609 65.2997 306.627 65.3011 306.644 65.296C306.647 65.2952 306.65 65.2944 306.652 65.2936L309.58 64.0003C309.611 63.9867 309.628 63.9522 309.618 63.9201C309.498 63.5197 309.379 63.1192 309.259 62.7174L309.143 62.3259L311.181 61.4255L312.062 62.84C312.078 62.8659 312.11 62.8773 312.139 62.8686C312.141 62.8679 312.144 62.8671 312.147 62.8663L312.68 62.6298L315.075 61.5713C315.094 61.5629 315.109 61.5458 315.114 61.526C315.119 61.5062 315.114 61.4852 315.102 61.4692C313.224 59.0642 311.348 56.6614 309.473 54.2586C309.455 54.2357 309.426 54.2277 309.399 54.236L309.397 54.2363ZM308.567 60.3987C308.341 59.0888 308.041 57.7618 307.649 56.3488C308.468 57.7932 309.247 58.8718 310.092 59.7273C309.959 59.7618 309.849 59.7922 309.75 59.822C309.291 59.9601 308.971 60.1157 308.567 60.3987Z" fill="#F3F3F1"/>
<path d="M299.258 66.6962C299.24 66.7017 299.222 66.6919 299.216 66.6739L296.604 58.2075C296.598 58.1895 296.608 58.1711 296.627 58.1656L299.528 57.2913C299.545 57.2862 299.564 57.2947 299.57 57.3123C299.982 58.4161 300.363 59.546 300.704 60.6727C300.975 61.5692 301.226 62.4856 301.45 63.3962C302.002 63.164 302.572 62.9572 303.144 62.7833L303.196 62.7676C303.766 62.5961 304.35 62.4522 304.933 62.3396C304.951 62.3358 304.967 62.3464 304.972 62.3631L305.699 64.7205C305.705 64.7384 305.695 64.7569 305.677 64.7624L299.257 66.6966L299.258 66.6962Z" fill="#F3F3F1"/>
<path d="M299.538 57.3234C299.93 58.3728 300.313 59.4925 300.671 60.6825C300.959 61.6342 301.209 62.5552 301.427 63.4423C301.938 63.2252 302.515 63.0093 303.154 62.8154C303.171 62.8103 303.189 62.8048 303.206 62.7997C303.828 62.6125 304.41 62.4749 304.941 62.3725L305.668 64.7299L299.249 66.6641L296.637 58.1977L299.538 57.3234ZM299.518 57.2592L296.617 58.1335C296.58 58.1445 296.56 58.1814 296.571 58.2173L299.183 66.6837C299.195 66.7197 299.232 66.7393 299.268 66.7283L305.688 64.7941C305.724 64.7831 305.744 64.7462 305.733 64.7103L305.006 62.3529C304.996 62.3195 304.962 62.3 304.927 62.3064C304.342 62.4197 303.757 62.5636 303.187 62.7355L303.134 62.7512C302.574 62.9216 302.015 63.1235 301.474 63.3496C301.251 62.4514 301.004 61.5478 300.737 60.6629C300.396 59.5349 300.014 58.4038 299.602 57.2999C299.589 57.2673 299.554 57.2486 299.518 57.2592Z" fill="#F3F3F1"/>
<path d="M329.825 59.0466C329.808 59.0504 329.79 59.0389 329.787 59.0218C329.657 58.4856 329.539 57.9373 329.437 57.3941C329.337 56.8684 329.251 56.3345 329.177 55.8065L326.797 56.2474C326.847 56.6687 326.909 57.0949 326.983 57.5159C327.096 58.1639 327.238 58.8172 327.406 59.4571C327.408 59.4661 327.406 59.4754 327.401 59.4838C327.396 59.4909 327.39 59.4954 327.383 59.4978L324.393 60.0505C324.384 60.0533 324.374 60.0505 324.367 60.0456C324.36 60.0408 324.355 60.0326 324.354 60.0245L322.712 51.3205C322.708 51.3034 322.719 51.2875 322.736 51.2824L325.721 50.7309C325.739 50.7271 325.756 50.7385 325.76 50.7556C325.907 51.3318 326.035 51.9202 326.141 52.5072C326.226 52.9701 326.298 53.4395 326.356 53.9061L328.734 53.466C328.617 52.978 328.51 52.481 328.415 51.989C328.31 51.4355 328.218 50.8739 328.142 50.3173C328.139 50.3011 328.15 50.2853 328.166 50.2806L331.154 49.7282C331.173 49.7253 331.191 49.7368 331.194 49.7555L332.837 58.4578C332.839 58.4668 332.837 58.4761 332.832 58.4832C332.828 58.4899 332.821 58.4935 332.813 58.4959L329.827 59.0475L329.825 59.0466Z" fill="#F3F3F1"/>
<path d="M322.744 51.3135L325.726 50.7618C325.864 51.308 325.994 51.8918 326.106 52.5109C326.196 53.007 326.269 53.4862 326.326 53.9434C327.142 53.7929 327.958 53.6411 328.775 53.4902C328.66 53.0099 328.548 52.506 328.449 51.9803C328.339 51.4017 328.248 50.8439 328.175 50.3099L331.16 49.7588L332.802 58.4611L329.821 59.0127C329.696 58.4974 329.579 57.9547 329.472 57.3864C329.366 56.8261 329.28 56.285 329.208 55.7663C328.392 55.9168 327.576 56.0686 326.76 56.2191C326.809 56.6366 326.872 57.0709 326.949 57.5205C327.071 58.2136 327.216 58.8632 327.373 59.4642L324.387 60.0158C323.839 57.1146 323.292 54.2134 322.745 51.3118M322.725 51.2476C322.693 51.2574 322.672 51.2905 322.678 51.3237L324.319 60.0264C324.323 60.0435 324.332 60.059 324.348 60.0696C324.362 60.0793 324.381 60.0836 324.4 60.0794L327.385 59.5278C327.385 59.5278 327.39 59.5263 327.393 59.5255C327.409 59.5208 327.421 59.5113 327.431 59.4971C327.442 59.4812 327.445 59.4622 327.439 59.4442C327.272 58.8068 327.131 58.1548 327.017 57.5056C326.947 57.0974 326.885 56.6809 326.835 56.2694L329.15 55.8414C329.222 56.36 329.307 56.8815 329.405 57.3953C329.507 57.9385 329.625 58.4868 329.755 59.0243C329.763 59.0597 329.798 59.0814 329.833 59.0751L332.815 58.5234C332.815 58.5234 332.82 58.5218 332.822 58.521C332.855 58.5112 332.876 58.4782 332.87 58.4449L331.227 49.7426C331.223 49.7255 331.214 49.71 331.198 49.6994C331.184 49.6897 331.166 49.6854 331.147 49.6896L328.163 50.2408C328.163 50.2408 328.157 50.2424 328.155 50.2432C328.124 50.2526 328.103 50.2839 328.108 50.3163C328.184 50.8742 328.276 51.4375 328.382 51.9893C328.473 52.471 328.578 52.9574 328.692 53.4338L328.684 53.4361L326.384 53.8599C326.326 53.4044 326.256 52.9457 326.173 52.4947C326.066 51.9081 325.938 51.3179 325.792 50.7405C325.783 50.7067 325.749 50.6847 325.714 50.691L322.732 51.2427C322.732 51.2427 322.727 51.2443 322.725 51.2451L322.725 51.2476Z" fill="#F3F3F1"/>
<path d="M319.405 62.3111C318.31 62.6411 317.129 62.6602 316.523 62.6435C316.51 62.6432 316.497 62.6344 316.492 62.6232L315.198 59.4852C315.195 59.4737 315.195 59.4609 315.204 59.4514C315.208 59.446 315.214 59.4427 315.22 59.4408L315.431 59.3576C315.436 59.3561 315.443 59.3554 315.448 59.3568L317.098 59.7226C317.578 59.7477 317.95 59.6805 318.261 59.6164C318.438 59.58 318.607 59.5375 318.764 59.49C318.984 59.4237 319.193 59.3439 319.385 59.2539C319.505 59.1979 319.632 59.1191 319.76 59.0229C319.808 58.9875 319.852 58.9223 319.881 58.8462C319.895 58.8126 319.894 58.7832 319.881 58.7591C319.867 58.7324 319.835 58.7113 319.789 58.7012C319.651 58.6672 319.506 58.684 319.371 58.7036C319.179 58.732 318.989 58.7599 318.797 58.7896C318.516 58.8323 318.225 58.8778 317.938 58.9152C317.311 58.9974 316.804 59.0086 316.338 58.9511C315.777 58.8816 315.352 58.7233 315.001 58.4542C314.699 58.2225 314.476 57.9248 314.321 57.5421C314.091 56.9745 314.064 56.3987 314.243 55.8341C314.34 55.5256 314.497 55.2339 314.721 54.9392C315.038 54.5236 315.445 54.1667 315.966 53.8471C316.368 53.5997 316.814 53.4005 317.331 53.235C317.366 53.2244 317.409 53.2114 317.459 53.1965C318.041 53.0211 318.611 52.935 319.154 52.9383C319.681 52.9424 320.144 53.0359 320.232 53.0542C320.333 53.0758 320.417 53.0953 320.476 53.1112C320.487 53.1136 320.495 53.121 320.499 53.1309C320.89 54.0235 321.266 54.9333 321.615 55.8355L321.627 55.8655C321.633 55.8822 321.626 55.9012 321.608 55.908L321.415 55.9856C321.409 55.9875 321.4 55.9873 321.394 55.985C320.955 55.8213 320.498 55.7148 320.033 55.671C319.715 55.6406 319.209 55.6246 318.61 55.7249C318.425 55.7556 318.242 55.7982 318.066 55.8511C317.826 55.9233 317.593 56.0174 317.373 56.13C317.277 56.1786 317.186 56.2494 317.106 56.3115C317.077 56.3342 317.048 56.3712 317.026 56.417C316.997 56.4762 316.995 56.5373 317.021 56.5842C317.045 56.6273 317.091 56.6556 317.15 56.6617C317.295 56.6785 317.42 56.6773 317.529 56.6584C317.823 56.6092 318.119 56.5494 318.406 56.4924L318.573 56.4587C319.228 56.3289 319.82 56.2221 320.427 56.2299C320.868 56.2362 321.24 56.3023 321.566 56.4357C322.013 56.6179 322.355 56.919 322.583 57.329C322.837 57.7885 322.976 58.2799 322.995 58.7892C323.015 59.3219 322.872 59.8254 322.571 60.2851C322.312 60.6788 321.963 61.0226 321.502 61.337C321.149 61.578 320.812 61.7624 320.471 61.9043C320.467 61.9055 319.969 62.1356 319.469 62.2919L319.405 62.3111Z" fill="#F3F3F1"/>
<path d="M317.47 53.2295C317.8 53.1302 318.429 52.9674 319.155 52.9731C319.688 52.9782 320.148 53.0712 320.225 53.0884C320.326 53.11 320.409 53.1299 320.468 53.1445C320.857 54.0333 321.229 54.9345 321.584 55.8479C321.585 55.8543 321.592 55.8719 321.596 55.8779L321.406 55.9548C321.052 55.8228 320.589 55.6916 320.035 55.6379C319.843 55.62 319.295 55.5762 318.603 55.692C318.416 55.7231 318.233 55.7657 318.055 55.8194C317.815 55.8916 317.582 55.9844 317.355 56.1002C317.258 56.1505 317.17 56.218 317.083 56.2846C317.046 56.3143 317.015 56.3585 316.994 56.4013C316.926 56.5398 316.991 56.6773 317.146 56.6939C317.274 56.7085 317.407 56.7118 317.535 56.6904C317.884 56.6328 318.232 56.5603 318.579 56.4907C319.189 56.37 319.8 56.2534 320.426 56.2626C320.813 56.268 321.192 56.3194 321.551 56.4655C321.987 56.6428 322.324 56.934 322.55 57.3443C322.799 57.7943 322.939 58.2769 322.958 58.7904C322.978 59.3248 322.834 59.8172 322.54 60.2665C322.263 60.6882 321.897 61.0244 321.48 61.3084C321.157 61.528 320.818 61.7226 320.456 61.8725C320.456 61.8725 319.96 62.1006 319.458 62.2589C319.437 62.2652 319.416 62.2714 319.396 62.2773C318.209 62.6352 316.934 62.6206 316.525 62.6079C316.515 62.5843 316.342 62.1646 316.159 61.7218C315.945 61.2026 315.445 59.9891 315.231 59.4699C315.418 59.3951 315.44 59.3872 315.44 59.3872L317.09 59.753C317.582 59.7788 317.964 59.7101 318.267 59.6467C318.438 59.6106 318.608 59.5693 318.773 59.5195C318.987 59.4551 319.195 59.3771 319.398 59.2823C319.532 59.2194 319.66 59.1372 319.779 59.048C319.84 59.0032 319.884 58.9265 319.911 58.8567C319.948 58.7599 319.899 58.692 319.796 58.667C319.653 58.6329 319.507 58.6488 319.365 58.669C318.886 58.7374 318.411 58.8191 317.932 58.882C317.404 58.9513 316.873 58.9835 316.341 58.9177C315.862 58.8574 315.41 58.7256 315.021 58.4271C314.713 58.1901 314.497 57.8862 314.352 57.5301C314.127 56.9762 314.093 56.4152 314.274 55.8442C314.377 55.5214 314.542 55.2303 314.748 54.9606C315.086 54.5176 315.508 54.1687 315.982 53.8772C316.408 53.6155 316.865 53.4205 317.34 53.2687C317.375 53.2581 317.417 53.2456 317.467 53.2307M317.447 53.1665C317.397 53.1814 317.356 53.1939 317.319 53.2049C316.799 53.37 316.35 53.5712 315.946 53.8194C315.423 54.1411 315.013 54.5005 314.692 54.9198C314.465 55.217 314.307 55.5129 314.209 55.8247C314.027 56.3974 314.054 56.9799 314.288 57.5549C314.443 57.9375 314.676 58.2478 314.98 58.4805C315.336 58.7535 315.765 58.9132 316.332 58.9837C316.8 59.042 317.312 59.0309 317.941 58.948C318.228 58.9105 318.52 58.8647 318.801 58.822C318.993 58.7923 319.183 58.7631 319.376 58.736C319.508 58.7172 319.648 58.7015 319.781 58.7333C319.816 58.7422 319.84 58.756 319.85 58.7741C319.857 58.7887 319.856 58.8086 319.847 58.8339C319.819 58.9054 319.779 58.9651 319.738 58.996C319.612 59.0914 319.487 59.1669 319.368 59.2225C319.178 59.3121 318.97 59.3902 318.752 59.4557C318.596 59.5028 318.427 59.5453 318.251 59.5813C317.944 59.6446 317.575 59.7106 317.097 59.6865C316.618 59.6623 315.451 59.322 315.451 59.322C315.439 59.32 315.428 59.3193 315.416 59.3229C315.413 59.3236 315.412 59.324 315.409 59.3248L315.204 59.4064C315.192 59.4099 315.18 59.4177 315.172 59.4285C315.157 59.4472 315.152 59.4739 315.162 59.4962L316.089 61.7485L316.291 62.2377C316.382 62.46 316.449 62.6196 316.455 62.6346C316.465 62.6595 316.489 62.6762 316.516 62.6765C317.125 62.6937 318.31 62.6747 319.41 62.3435C319.43 62.3372 319.451 62.3309 319.472 62.3246C319.973 62.168 320.474 61.9371 320.479 61.9355C320.82 61.7936 321.158 61.6075 321.514 61.3657C321.978 61.0489 322.331 60.7026 322.592 60.3056C322.898 59.8401 323.042 59.3306 323.021 58.7911C323.002 58.2763 322.861 57.7797 322.606 57.3151C322.374 56.8979 322.027 56.5928 321.572 56.407C321.244 56.2731 320.866 56.2043 320.422 56.1992C319.81 56.1913 319.217 56.2985 318.56 56.4291L318.39 56.4635C318.105 56.5214 317.808 56.5799 317.517 56.6283C317.411 56.6461 317.288 56.6469 317.148 56.6315C317.099 56.6265 317.063 56.6052 317.044 56.5716C317.024 56.5341 317.026 56.4845 317.05 56.435C317.07 56.3939 317.094 56.3613 317.121 56.3408C317.203 56.2766 317.29 56.2099 317.382 56.1625C317.6 56.0503 317.831 55.9583 318.07 55.8865C318.244 55.8339 318.425 55.7921 318.61 55.7601C319.081 55.6814 319.569 55.6633 320.024 55.706C320.486 55.7506 320.941 55.8549 321.376 56.0186C321.39 56.024 321.406 56.0236 321.42 56.0192C321.423 56.0185 321.424 56.0181 321.427 56.0173L321.616 55.9404C321.651 55.9273 321.667 55.8886 321.654 55.8547C321.652 55.8483 321.644 55.8282 321.641 55.8221C321.292 54.9199 320.915 54.0102 320.525 53.1175C320.516 53.099 320.5 53.0842 320.48 53.079C320.395 53.0569 320.315 53.0388 320.235 53.0211C320.111 52.9951 319.666 52.9089 319.151 52.9042C318.604 52.9004 318.031 52.9877 317.446 53.1639L317.447 53.1665Z" fill="#F3F3F1"/>
<path d="M295.346 69.7065C294.99 69.8137 294.652 69.8817 294.313 69.9137C293.734 69.9702 293.173 69.9262 292.647 69.7857C291.755 69.5466 290.994 69.0559 290.385 68.3243C290.005 67.8676 289.711 67.3418 289.511 66.7622C289.311 66.1838 289.227 65.5931 289.263 65.0083C289.3 64.3993 289.464 63.8165 289.751 63.277C290.054 62.7056 290.477 62.2035 291.01 61.7805C291.473 61.4123 291.994 61.1135 292.56 60.891C292.708 60.8326 292.857 60.7807 293.006 60.7355C293.293 60.6492 293.587 60.586 293.88 60.5482L293.929 60.5418C294.156 60.5113 294.39 60.4814 294.67 60.5037C294.67 60.5037 294.693 60.5051 295.067 60.5411C295.078 60.5422 295.087 60.548 295.093 60.5558C295.379 60.9918 295.641 61.4489 295.872 61.9138C296.153 62.4776 296.397 63.0663 296.597 63.6629C296.602 63.6796 296.595 63.6972 296.578 63.7036C296.578 63.7036 296.425 63.7737 296.422 63.7745C296.414 63.7769 296.404 63.777 296.398 63.7748C296.071 63.6516 295.733 63.571 295.393 63.5358C295.198 63.5148 294.871 63.4812 294.461 63.5543C294.35 63.5736 294.24 63.5998 294.132 63.6324C294.083 63.6473 294.034 63.6618 293.985 63.681C293.676 63.7922 293.41 63.9186 293.173 64.066C292.803 64.2968 292.556 64.5395 292.399 64.8325C292.223 65.1577 292.189 65.495 292.295 65.8361C292.366 66.0604 292.469 66.2469 292.61 66.4092C292.813 66.6414 293.072 66.788 293.379 66.847C293.703 66.9094 294.034 66.8866 294.393 66.7787C294.447 66.7622 294.5 66.7449 294.554 66.7245C294.922 66.5897 295.256 66.4132 295.547 66.2008C295.663 66.1167 295.773 66.0217 295.875 65.9193C296.116 65.6785 296.249 65.4504 296.377 65.2293C296.517 64.9894 296.639 64.7351 296.738 64.4721C296.742 64.4641 296.748 64.4579 296.756 64.4543L296.906 64.3824C296.92 64.3781 296.936 64.3844 296.945 64.3974C297.212 64.8304 297.46 65.2804 297.685 65.7361C297.96 66.2959 298.205 66.8788 298.413 67.4675C298.415 67.4752 298.416 67.482 298.413 67.49C298.408 67.5026 298.402 67.5199 298.394 67.5405C298.233 67.9523 297.926 68.202 297.57 68.4905C297.519 68.5309 297.468 68.5729 297.417 68.615C296.945 69.0042 296.405 69.317 295.815 69.544C295.657 69.6043 295.5 69.6585 295.348 69.7045L295.346 69.7065Z" fill="#F3F3F1"/>
<path d="M293.014 60.7697C293.298 60.6841 293.588 60.6221 293.881 60.5843C294.12 60.5529 294.368 60.5162 294.664 60.5405C294.664 60.5405 294.688 60.5419 295.061 60.5767C295.319 60.9704 295.584 61.4225 295.838 61.9312C296.151 62.5582 296.384 63.1475 296.561 63.6752C296.51 63.699 296.458 63.7215 296.407 63.7453C296.003 63.5921 295.649 63.5303 295.394 63.5048C295.175 63.4824 294.856 63.4507 294.452 63.5235C294.339 63.5432 294.229 63.5694 294.119 63.6027C294.069 63.6176 294.018 63.6329 293.97 63.6517C293.683 63.755 293.408 63.8799 293.151 64.0404C292.83 64.241 292.546 64.4836 292.364 64.8189C292.188 65.1458 292.146 65.4909 292.259 65.8484C292.328 66.065 292.431 66.2625 292.581 66.4335C292.79 66.6736 293.054 66.8228 293.368 66.8824C293.721 66.9502 294.064 66.9141 294.399 66.8133C294.454 66.7968 294.508 66.779 294.563 66.7583C294.921 66.6279 295.256 66.4553 295.564 66.2306C295.684 66.1427 295.794 66.0477 295.896 65.9453C296.135 65.7049 296.265 65.4848 296.403 65.2482C296.513 65.0607 296.645 64.8049 296.767 64.486C296.815 64.463 296.864 64.4399 296.912 64.4169C297.159 64.8155 297.409 65.2608 297.652 65.7532C297.954 66.3667 298.19 66.9493 298.378 67.4806C298.375 67.4916 298.369 67.5088 298.359 67.5299C298.18 67.9909 297.811 68.2438 297.393 68.5902C296.914 68.9856 296.382 69.2905 295.8 69.5135C295.646 69.5725 295.492 69.6261 295.335 69.6731C295.001 69.774 294.66 69.8458 294.309 69.88C293.751 69.9345 293.197 69.8979 292.654 69.7528C291.746 69.5098 291.003 69.0166 290.41 68.3028C290.025 67.8392 289.738 67.3195 289.542 66.7514C289.346 66.1873 289.258 65.6075 289.295 65.0112C289.332 64.4052 289.493 63.8316 289.779 63.2938C290.087 62.7111 290.509 62.2204 291.029 61.8086C291.498 61.4371 292.012 61.1432 292.569 60.9247C292.715 60.8668 292.863 60.8165 293.013 60.7714M292.993 60.7072C292.844 60.7523 292.693 60.8046 292.545 60.8634C291.976 61.0867 291.452 61.3876 290.986 61.7582C290.45 62.1837 290.024 62.6896 289.718 63.2643C289.429 63.8088 289.264 64.3946 289.227 65.0091C289.191 65.5969 289.276 66.1902 289.477 66.7736C289.679 67.3571 289.975 67.8851 290.358 68.3452C290.971 69.0825 291.737 69.5771 292.637 69.8182C293.168 69.96 293.734 70.0042 294.317 69.9477C294.658 69.915 294.999 69.8461 295.357 69.7382C295.509 69.6923 295.667 69.6376 295.827 69.577C296.421 69.3488 296.963 69.0352 297.439 68.6423C297.491 68.5998 297.541 68.5582 297.591 68.5178C297.951 68.2256 298.262 67.9747 298.425 67.5536C298.433 67.533 298.44 67.514 298.444 67.5031C298.449 67.4888 298.449 67.4735 298.444 67.4593C298.237 66.8694 297.991 66.2865 297.715 65.7242C297.49 65.2671 297.242 64.8158 296.973 64.3832C296.956 64.3573 296.924 64.3446 296.895 64.3532C296.891 64.3544 296.889 64.3552 296.885 64.3564L296.74 64.4254C296.724 64.4331 296.712 64.4464 296.706 64.4624C296.607 64.7236 296.485 64.9763 296.347 65.2145C296.214 65.444 296.087 65.6604 295.85 65.8975C295.75 65.9978 295.641 66.0923 295.526 66.1761C295.238 66.3877 294.906 66.5621 294.542 66.6945C294.488 66.7135 294.434 66.7326 294.382 66.7483C294.029 66.8546 293.703 66.8771 293.383 66.8148C293.084 66.7577 292.831 66.6134 292.634 66.3881C292.495 66.2305 292.394 66.0462 292.325 65.8271C292.22 65.4953 292.254 65.1666 292.425 64.8485C292.58 64.5618 292.822 64.3219 293.187 64.0952C293.424 63.9482 293.687 63.8239 293.993 63.7134C294.042 63.696 294.09 63.6802 294.138 63.6656C294.245 63.6335 294.355 63.6073 294.463 63.5875C294.866 63.5151 295.191 63.549 295.385 63.5691C295.724 63.6047 296.058 63.6835 296.381 63.8066C296.395 63.8121 296.411 63.8129 296.426 63.8086C296.428 63.8078 296.432 63.8066 296.435 63.8058L296.588 63.7357C296.62 63.7221 296.636 63.6864 296.624 63.6534C296.424 63.0555 296.179 62.4655 295.898 61.9004C295.666 61.4343 295.402 60.9763 295.117 60.539C295.105 60.5213 295.086 60.5102 295.066 60.508C294.695 60.4737 294.668 60.4705 294.668 60.4705C294.385 60.4478 294.148 60.4784 293.92 60.508L293.869 60.5148C293.575 60.553 293.28 60.6166 292.991 60.7037L292.993 60.7072Z" fill="#F3F3F1"/>
<path d="M309.785 70.3787C309.739 70.3932 309.69 70.3675 309.676 70.322L309.572 69.987C309.815 69.9138 309.969 69.8153 310.034 69.6914C310.098 69.5675 310.098 69.399 310.032 69.1857L309.89 68.7268C309.811 68.4706 309.784 68.2549 309.808 68.0797C309.833 67.9026 309.898 67.7552 310.003 67.6373C310.109 67.519 310.248 67.4199 310.418 67.3398C310.566 67.2704 310.729 67.2071 310.908 67.1498C310.954 67.1351 311.003 67.1609 311.017 67.2064L311.17 67.7018C311.184 67.7474 311.158 67.7953 311.112 67.8115C310.989 67.8555 310.897 67.906 310.836 67.963C310.763 68.0303 310.725 68.1129 310.721 68.2109C310.717 68.3074 310.736 68.4228 310.777 68.5571L310.964 69.1635C310.997 69.2687 311.008 69.375 310.998 69.4824C310.988 69.5884 310.941 69.6942 310.857 69.7997C310.772 69.9039 310.638 70.0072 310.453 70.1098C310.284 70.2019 310.062 70.2916 309.785 70.3787ZM312.588 72.2977C312.602 72.3433 312.576 72.3916 312.529 72.4047C312.348 72.4559 312.177 72.4934 312.015 72.5172C311.829 72.5446 311.658 72.5386 311.503 72.499C311.35 72.459 311.212 72.3725 311.091 72.2394C310.972 72.1073 310.873 71.9132 310.794 71.6571L310.652 71.196C310.586 70.9828 310.492 70.8426 310.368 70.7755C310.245 70.7083 310.061 70.7113 309.818 70.7845L309.715 70.4496C309.701 70.404 309.727 70.3557 309.773 70.3424C310.052 70.2621 310.288 70.2144 310.48 70.1991C310.691 70.181 310.861 70.1926 310.991 70.2338C311.12 70.2736 311.219 70.3354 311.287 70.419C311.356 70.5013 311.406 70.5958 311.439 70.7024L311.626 71.3088C311.667 71.4417 311.717 71.5471 311.774 71.6251C311.833 71.7044 311.911 71.7519 312.01 71.7676C312.092 71.7813 312.197 71.7725 312.324 71.7409C312.371 71.7293 312.42 71.7547 312.434 71.8002L312.588 72.2977ZM309.818 70.7845L309.572 69.987L310.245 69.7844C310.291 69.7704 310.34 69.7961 310.354 69.8416L310.549 70.4741C310.563 70.5197 310.537 70.5679 310.491 70.5818L309.818 70.7845Z" fill="#F3F3F1"/>
<path d="M331.59 64.2627C331.637 64.2536 331.668 64.2079 331.658 64.1613L331.587 63.8183C331.338 63.8692 331.155 63.8555 331.038 63.7774C330.922 63.6992 330.84 63.551 330.795 63.3327L330.697 62.8628C330.642 62.6005 330.562 62.3982 330.455 62.2558C330.347 62.1123 330.219 62.0137 330.07 61.9599C329.919 61.9065 329.75 61.8849 329.562 61.8953C329.398 61.9043 329.224 61.9261 329.039 61.9606C328.992 61.9695 328.962 62.0152 328.971 62.0619L329.077 62.5691C329.087 62.6158 329.133 62.6454 329.181 62.6381C329.31 62.6183 329.416 62.619 329.497 62.6402C329.593 62.6648 329.667 62.7192 329.717 62.8035C329.768 62.8863 329.807 62.9965 329.836 63.134L329.966 63.7549C329.988 63.8627 330.03 63.9613 330.09 64.0509C330.151 64.1391 330.243 64.2096 330.368 64.2624C330.493 64.3138 330.661 64.3407 330.873 64.3432C331.066 64.3442 331.305 64.3174 331.59 64.2627ZM330.059 67.2749C330.069 67.3215 330.115 67.3516 330.163 67.3411C330.346 67.3003 330.515 67.2521 330.668 67.1964C330.845 67.1322 330.992 67.046 331.109 66.9378C331.224 66.83 331.303 66.6891 331.344 66.515C331.385 66.3427 331.378 66.1254 331.323 65.8631L331.225 65.3911C331.179 65.1728 331.194 65.0049 331.27 64.8874C331.346 64.7699 331.508 64.6857 331.757 64.6349L331.685 64.2919C331.676 64.2453 331.629 64.2152 331.582 64.2255C331.298 64.2872 331.068 64.357 330.892 64.4347C330.698 64.5186 330.555 64.6093 330.461 64.7068C330.367 64.8028 330.31 64.9039 330.29 65.0099C330.27 65.1145 330.272 65.2214 330.294 65.3306L330.424 65.9515C330.452 66.0876 330.46 66.2035 330.447 66.2993C330.435 66.3965 330.389 66.4753 330.31 66.5358C330.244 66.587 330.148 66.6289 330.021 66.6615C329.974 66.6735 329.943 66.7188 329.953 66.7655L330.059 67.2749ZM331.757 64.6349L331.587 63.8183L330.898 63.959C330.851 63.9687 330.82 64.0144 330.83 64.061L330.965 64.7086C330.975 64.7553 331.021 64.7852 331.068 64.7756L331.757 64.6349Z" fill="#F3F3F1"/>
<path d="M306.621 73.8024C306.081 73.9547 305.542 74.1079 305.003 74.2626C304.971 74.2724 304.932 74.275 304.915 74.2154C304.443 72.5944 303.97 70.9722 303.496 69.3503C303.49 69.3326 303.486 69.3117 303.497 69.2928C303.505 69.2789 303.519 69.2682 303.537 69.2628L303.549 69.2592C303.588 69.2512 304.836 68.8973 307.257 68.2093C307.271 68.2049 307.288 68.2116 307.294 68.2267C307.395 68.4447 307.479 68.6717 307.547 68.9026C307.614 69.1323 307.665 69.3695 307.696 69.6073C307.698 69.6222 307.689 69.6365 307.674 69.6412L305.655 70.217C305.705 70.3146 305.746 70.4175 305.778 70.5217C305.813 70.6343 305.835 70.7492 305.846 70.8663L307.43 70.4188C307.445 70.4145 307.462 70.4223 307.467 70.4362C307.686 70.9243 307.787 71.2137 307.848 71.7418C307.85 71.7568 307.84 71.7714 307.825 71.7757L306.233 72.2258C306.509 73.1797 306.655 73.6782 306.666 73.7071C306.68 73.7368 306.674 73.7578 306.667 73.769C306.656 73.7891 306.636 73.7965 306.619 73.8015L306.617 73.8023L306.621 73.8024Z" fill="#F3F3F1"/>
<path d="M303.545 69.294L303.554 69.2914C303.587 69.2852 305.109 68.8539 307.265 68.2404C307.352 68.4291 307.441 68.6535 307.517 68.9116C307.592 69.1698 307.638 69.406 307.666 69.6112L305.611 70.1967C305.658 70.2848 305.709 70.3962 305.749 70.5304C305.794 70.6737 305.811 70.8031 305.82 70.9068C306.447 70.728 306.813 70.628 307.441 70.4492C307.657 70.933 307.757 71.2149 307.819 71.7454C307.191 71.9242 306.825 72.0241 306.197 72.2029C306.448 73.07 306.626 73.6842 306.641 73.7174C306.642 73.721 306.65 73.7392 306.643 73.7531C306.638 73.7609 306.629 73.7661 306.614 73.7708L306.611 73.7716C306.071 73.9239 305.533 74.0783 304.994 74.2318C304.965 74.2405 304.953 74.2375 304.943 74.2055C304.471 72.5845 303.998 70.9623 303.524 69.3405C303.519 69.3251 303.518 69.3137 303.523 69.3059C303.528 69.2967 303.537 69.2926 303.544 69.2904M303.526 69.2312C303.499 69.2391 303.479 69.2543 303.467 69.276C303.45 69.3084 303.459 69.342 303.464 69.3574C303.938 70.9792 304.41 72.6002 304.883 74.2224C304.897 74.2663 304.928 74.3137 305.011 74.2914C305.55 74.1367 306.088 73.9835 306.629 73.8312C306.653 73.8239 306.682 73.8125 306.698 73.7831C306.706 73.7676 306.716 73.7361 306.698 73.6938C306.684 73.6578 306.541 73.1699 306.275 72.2456L307.809 71.813L307.837 71.8046C307.866 71.7959 307.885 71.7682 307.881 71.7383C307.819 71.2066 307.717 70.9149 307.498 70.4244C307.485 70.3959 307.453 70.381 307.423 70.39L305.874 70.827C305.861 70.7209 305.839 70.6161 305.808 70.5127C305.779 70.4179 305.744 70.3249 305.701 70.2357L307.683 69.6708C307.711 69.6621 307.73 69.6332 307.726 69.6033C307.694 69.3643 307.643 69.126 307.576 68.8939C307.508 68.6618 307.422 68.434 307.321 68.2144C307.309 68.1859 307.277 68.1722 307.247 68.1812C304.835 68.8663 303.589 69.2198 303.539 69.2311C303.539 69.2311 303.533 69.2329 303.526 69.2351L303.526 69.2312Z" fill="#F3F3F1"/>
<path d="M301.459 75.3477L301.454 75.3491C300.993 75.4788 300.597 75.5218 300.206 75.4882C299.567 75.4321 299.02 75.1916 298.581 74.7724C298.359 74.5608 298.175 74.3043 298.033 74.0081C297.945 73.8248 297.876 73.6331 297.831 73.4396C297.724 72.9836 297.731 72.5402 297.85 72.1211C298.029 71.4845 298.419 70.9683 299.01 70.5895C299.21 70.4605 299.435 70.3513 299.677 70.2656C299.74 70.2425 299.805 70.2217 299.87 70.2022C300.048 70.1486 300.215 70.1112 300.383 70.0876C301.078 69.9908 301.712 70.108 302.266 70.4356C302.666 70.6712 302.985 70.9996 303.215 71.4109C303.361 71.6735 303.464 71.961 303.521 72.2649C303.613 72.7475 303.575 73.2184 303.41 73.663C303.288 73.9938 303.091 74.2977 302.827 74.5638C302.596 74.7952 302.316 74.9896 301.993 75.1439C301.836 75.2183 301.656 75.2883 301.486 75.3394L301.457 75.348L301.459 75.3477ZM300.376 71.9631C300.153 72.0305 299.97 72.1192 299.818 72.235C299.682 72.3382 299.588 72.453 299.532 72.584C299.475 72.7151 299.459 72.8557 299.486 73.003C299.523 73.2041 299.602 73.3577 299.728 73.4764C299.883 73.6202 300.08 73.6917 300.346 73.6994C300.52 73.7053 300.695 73.6783 300.933 73.6117L300.948 73.6074C301.164 73.5422 301.35 73.45 301.5 73.3335C301.625 73.2363 301.715 73.1315 301.775 73.0111C301.855 72.8497 301.872 72.6726 301.823 72.4841C301.785 72.3374 301.723 72.2203 301.633 72.1256C301.497 71.9815 301.314 71.8994 301.075 71.877C300.866 71.857 300.65 71.8833 300.397 71.957L300.376 71.9631Z" fill="#F3F3F1"/>
<path d="M299.879 70.2318C300.046 70.1815 300.215 70.1422 300.389 70.1183C301.049 70.0269 301.676 70.1216 302.252 70.4619C302.652 70.6987 302.963 71.0219 303.189 71.4264C303.338 71.691 303.437 71.9732 303.493 72.2709C303.582 72.7413 303.549 73.2029 303.384 73.6529C303.258 73.9911 303.063 74.2856 302.807 74.5426C302.567 74.7831 302.289 74.9706 301.982 75.1174C301.811 75.1989 301.633 75.2654 301.481 75.3111C301.472 75.314 301.462 75.3169 301.452 75.3198C301.021 75.4407 300.62 75.4942 300.211 75.4582C299.594 75.4046 299.054 75.1788 298.606 74.7507C298.377 74.5323 298.2 74.2787 298.064 73.996C297.977 73.8151 297.91 73.6281 297.864 73.4334C297.763 72.9979 297.76 72.5625 297.882 72.1294C298.065 71.4788 298.459 70.9819 299.028 70.6151C299.235 70.4815 299.456 70.3773 299.688 70.2945C299.752 70.2714 299.815 70.251 299.88 70.2315M300.959 73.6379C301.139 73.5836 301.343 73.4973 301.521 73.3583C301.639 73.2672 301.738 73.1584 301.805 73.0256C301.892 72.8491 301.904 72.6656 301.855 72.4771C301.818 72.3379 301.758 72.211 301.658 72.1051C301.502 71.9386 301.302 71.8682 301.08 71.847C300.844 71.8247 300.616 71.8625 300.389 71.9282C300.383 71.9301 300.376 71.9322 300.37 71.934C300.166 71.9956 299.973 72.0809 299.803 72.2111C299.675 72.3079 299.57 72.4248 299.506 72.5725C299.444 72.7128 299.431 72.859 299.458 73.009C299.492 73.1967 299.567 73.3659 299.709 73.4991C299.888 73.6654 300.109 73.723 300.346 73.7304C300.537 73.7364 300.723 73.7037 300.943 73.6414C300.947 73.6399 300.952 73.6385 300.958 73.6367M299.861 70.1711C299.798 70.1903 299.732 70.2114 299.667 70.2348C299.422 70.3216 299.196 70.4312 298.993 70.5621C298.397 70.9451 298.002 71.4666 297.82 72.1118C297.701 72.5363 297.695 72.9848 297.803 73.4456C297.849 73.6415 297.917 73.8344 298.006 74.0212C298.15 74.3198 298.337 74.5807 298.561 74.7939C299.006 75.218 299.558 75.462 300.204 75.5184C300.599 75.5537 300.998 75.5083 301.462 75.3792C301.464 75.3784 301.466 75.3777 301.469 75.377L301.499 75.3679C301.67 75.3165 301.851 75.2462 302.01 75.1713C302.336 75.016 302.619 74.8181 302.852 74.5849C303.119 74.3164 303.319 74.0091 303.443 73.674C303.61 73.2236 303.647 72.7476 303.555 72.2587C303.497 71.9512 303.393 71.6602 303.244 71.3956C303.01 70.9791 302.687 70.6467 302.284 70.4082C301.724 70.0774 301.083 69.9584 300.38 70.0562C300.21 70.0802 300.04 70.1171 299.861 70.1711ZM300.94 73.5775L300.926 73.5818C300.692 73.6469 300.519 73.6732 300.349 73.6674C300.09 73.6587 299.901 73.5913 299.752 73.4524C299.631 73.3401 299.555 73.1908 299.52 72.9968C299.495 72.8555 299.508 72.7206 299.563 72.5966C299.619 72.4699 299.709 72.3597 299.84 72.2594C299.989 72.146 300.168 72.0583 300.388 71.9921L300.407 71.9863C300.656 71.9137 300.868 71.8888 301.073 71.9072C301.306 71.929 301.482 72.0067 301.612 72.1451C301.697 72.2358 301.756 72.3489 301.793 72.4905C301.84 72.6731 301.826 72.8392 301.748 72.996C301.691 73.1117 301.604 73.2142 301.483 73.3076C301.336 73.4219 301.153 73.5118 300.941 73.5759L300.94 73.5775Z" fill="#F3F3F1"/>
<path d="M313.869 71.5393C313.862 71.5414 313.855 71.5409 313.847 71.5379C313.84 71.535 313.834 71.529 313.83 71.5211L311.801 66.7839C311.795 66.7677 311.802 66.7502 311.818 66.7428L312.273 66.5527C312.791 66.3355 313.309 66.1199 313.828 65.9039C314.032 65.8193 314.219 65.7514 314.401 65.6964C314.536 65.6558 314.669 65.6223 314.798 65.5961C315.122 65.5309 315.412 65.5095 315.686 65.5319C316.204 65.5753 316.652 65.7718 317.017 66.1162C317.202 66.2909 317.362 66.5002 317.51 66.7574C317.619 66.9474 317.713 67.1558 317.79 67.3799C317.934 67.7961 317.983 68.1789 317.937 68.5501C317.894 68.8997 317.763 69.2252 317.548 69.5165C317.338 69.8024 317.058 70.0525 316.693 70.2829C316.453 70.4329 316.186 70.5705 315.872 70.7014L313.867 71.5384L313.869 71.5393ZM314.081 67.4552C314.512 68.2147 314.702 68.656 314.937 69.4553L315.092 69.3905C315.208 69.3425 315.326 69.2929 315.442 69.2437C315.638 69.16 315.781 69.0651 315.89 68.944C316.017 68.8049 316.091 68.6414 316.109 68.46C316.125 68.2986 316.103 68.1343 316.042 67.9572C315.953 67.7031 315.839 67.5172 315.683 67.37C315.569 67.2633 315.44 67.1919 315.299 67.1582C315.13 67.1172 314.953 67.1238 314.774 67.1778C314.756 67.1832 314.739 67.1883 314.721 67.1937C314.612 67.2317 314.504 67.2773 314.398 67.3209L314.275 67.3723C314.226 67.3922 314.177 67.4122 314.128 67.4333L314.079 67.4532L314.081 67.4552Z" fill="#F3F3F1"/>
<path d="M314.413 65.7264C314.543 65.6873 314.674 65.6542 314.807 65.6273C315.097 65.5682 315.389 65.5398 315.685 65.5644C316.191 65.6063 316.63 65.7939 316.997 66.1404C317.193 66.3259 317.35 66.5414 317.484 66.7743C317.597 66.9707 317.687 67.1779 317.762 67.3909C317.892 67.766 317.957 68.1505 317.907 68.5474C317.864 68.897 317.734 69.2147 317.523 69.4994C317.295 69.8104 317.003 70.0523 316.676 70.257C316.417 70.4206 316.141 70.5541 315.859 70.6729C315.206 70.9459 314.553 71.2177 313.901 71.4907L313.858 71.5088L311.829 66.7717C311.843 66.7661 311.855 66.7613 311.866 66.7565C312.524 66.4821 313.182 66.2061 313.841 65.9325C314.028 65.854 314.218 65.7839 314.411 65.7256M314.916 69.4939C314.926 69.491 314.932 69.4892 314.939 69.4871C315.111 69.4145 315.284 69.3444 315.454 69.271C315.627 69.1969 315.786 69.1037 315.914 68.9642C316.044 68.8213 316.121 68.6543 316.14 68.4624C316.157 68.2849 316.128 68.1137 316.07 67.9473C315.991 67.7224 315.881 67.5148 315.704 67.3481C315.591 67.2411 315.458 67.1657 315.305 67.129C315.122 67.0845 314.941 67.0965 314.764 67.1497C314.746 67.1551 314.728 67.1606 314.71 67.1672C314.559 67.2206 314.412 67.2856 314.262 67.3449C314.186 67.3756 314.112 67.407 314.034 67.4396C314.469 68.2019 314.666 68.65 314.914 69.4958M314.391 65.6683C314.207 65.7237 314.019 65.7919 313.815 65.877C313.342 66.0737 312.87 66.2704 312.397 66.4684L311.841 66.7007L311.811 66.7136L311.804 66.7158C311.789 66.7229 311.777 66.7355 311.77 66.7506C311.764 66.7654 311.764 66.7822 311.77 66.7984L313.799 71.5356C313.804 71.5482 313.814 71.5595 313.827 71.566C313.841 71.5734 313.859 71.5758 313.876 71.5708C313.878 71.5701 313.879 71.5697 313.882 71.569L313.925 71.5508L315.883 70.733C316.198 70.6017 316.468 70.4634 316.709 70.3131C317.078 70.0816 317.361 69.8281 317.573 69.5387C317.792 69.2424 317.924 68.9126 317.968 68.5575C318.014 68.1824 317.965 67.7945 317.82 67.3736C317.741 67.1487 317.647 66.9363 317.536 66.7455C317.388 66.4847 317.224 66.2738 317.038 66.0968C316.668 65.7475 316.215 65.5474 315.689 65.5038C315.412 65.4812 315.119 65.5022 314.792 65.5681C314.662 65.5943 314.528 65.6282 314.393 65.6691L314.391 65.6683ZM314.122 67.47L314.134 67.4664C314.184 67.4437 314.234 67.4234 314.284 67.4031C314.326 67.3865 314.367 67.3691 314.409 67.3513C314.513 67.3081 314.622 67.2625 314.729 67.2249C314.746 67.2198 314.763 67.2147 314.781 67.2093C314.955 67.1568 315.126 67.1508 315.29 67.1894C315.428 67.223 315.548 67.2902 315.66 67.3937C315.812 67.537 315.924 67.7196 316.011 67.9678C316.07 68.1401 316.092 68.2994 316.076 68.4569C316.059 68.6344 315.99 68.787 315.865 68.923C315.759 69.0407 315.62 69.1329 315.428 69.2155C315.312 69.2647 315.195 69.314 315.079 69.362L314.956 69.4134C314.727 68.6421 314.539 68.2029 314.123 67.4696L314.122 67.47Z" fill="#F3F3F1"/>
<path d="M319.257 69.9094C319.239 69.9121 319.223 69.9 319.221 69.8839L318.424 64.8042C318.421 64.7959 318.424 64.7886 318.429 64.7805C318.433 64.7755 318.44 64.7709 318.446 64.7691L322.377 64.1632C322.392 64.1613 322.407 64.1699 322.411 64.1829C322.482 64.379 322.538 64.5822 322.576 64.7869C322.627 65.0577 322.646 65.3341 322.635 65.6093C322.634 65.6226 322.626 65.6341 322.613 65.6381L320.48 65.9673C320.513 66.0132 320.537 66.0643 320.549 66.1187C320.572 66.2129 320.559 66.2957 320.541 66.3544L322.492 66.0501C322.507 66.0481 322.523 66.0575 322.526 66.0721C322.587 66.2856 322.636 66.5051 322.67 66.7253C322.705 66.9515 322.728 67.1817 322.735 67.4087C322.735 67.4229 322.726 67.4348 322.713 67.4388L320.757 67.7406C320.788 67.7868 320.821 67.8507 320.834 67.9321C320.85 68.0207 320.84 68.0976 320.822 68.156L322.953 67.8311C322.968 67.8291 322.983 67.8377 322.987 67.8507C323.079 68.1026 323.144 68.364 323.178 68.6294C323.207 68.8421 323.217 69.0594 323.208 69.2743C323.207 69.2876 323.199 69.2991 323.185 69.3031L319.255 69.9086L319.257 69.9094Z" fill="#F3F3F1"/>
<path d="M318.454 64.7991L322.38 64.1935C322.441 64.3615 322.5 64.5625 322.543 64.7916C322.601 65.1057 322.611 65.3838 322.602 65.6077C321.875 65.7194 321.148 65.8322 320.421 65.9439C320.447 65.9735 320.496 66.0339 320.517 66.1246C320.548 66.2527 320.507 66.3567 320.491 66.3915C320.529 66.385 321.453 66.2414 321.492 66.2349C321.825 66.1824 322.159 66.1308 322.493 66.0783C322.547 66.2689 322.598 66.4869 322.636 66.7276C322.676 66.9759 322.694 67.2048 322.702 67.4071L320.699 67.7153C320.726 67.7473 320.783 67.822 320.802 67.9341C320.824 68.0557 320.79 68.1528 320.774 68.1912C321.502 68.0807 322.229 67.9691 322.957 67.8571C323.032 68.0623 323.107 68.322 323.148 68.6294C323.18 68.8696 323.186 69.0868 323.178 69.2692L319.251 69.8748L318.454 64.7952M318.435 64.736C318.422 64.74 318.411 64.7471 318.403 64.7587C318.393 64.7721 318.389 64.7889 318.392 64.8046L319.19 69.8843C319.195 69.9177 319.227 69.9416 319.261 69.9366L323.187 69.331C323.187 69.331 323.193 69.3292 323.196 69.3285C323.221 69.3209 323.239 69.2986 323.24 69.2724C323.25 69.0559 323.24 68.8362 323.21 68.6223C323.175 68.3546 323.11 68.0908 323.017 67.8366C323.007 67.8085 322.978 67.7913 322.948 67.7965L320.863 68.1151C320.874 68.0601 320.878 67.9955 320.866 67.9227C320.854 67.859 320.832 67.8047 320.808 67.7603L322.712 67.4674C322.712 67.4674 322.718 67.4656 322.721 67.4648C322.747 67.4569 322.766 67.4319 322.765 67.4036C322.757 67.1742 322.736 66.9425 322.7 66.7163C322.665 66.4952 322.616 66.2742 322.555 66.0595C322.546 66.0299 322.516 66.0103 322.485 66.0146L322.223 66.056L320.582 66.3123C320.593 66.2557 320.597 66.1845 320.579 66.1073C320.568 66.0651 320.553 66.0244 320.531 65.987L322.612 65.6667C322.612 65.6667 322.618 65.6649 322.621 65.6642C322.646 65.6566 322.664 65.6343 322.665 65.6069C322.675 65.3293 322.656 65.0503 322.605 64.7782C322.566 64.5723 322.511 64.3676 322.439 64.1691C322.429 64.141 322.4 64.1239 322.371 64.129L318.444 64.7346C318.444 64.7346 318.438 64.7364 318.436 64.7372L318.435 64.736Z" fill="#F3F3F1"/>
<path d="M306.918 77.8743L306.836 77.6102L307.764 76.8221L307.858 77.126L307.214 77.6374L307.219 77.6187L307.23 77.6562L307.216 77.6434L308.039 77.7127L308.133 78.0166L306.918 77.8743Z" fill="#F3F3F1"/>
<path d="M308.608 78.0498L308.255 78.1562L308.319 76.4574L308.743 76.3294L309.755 77.7042L309.402 77.8106L308.645 76.7427L308.633 76.7464L308.608 78.0498ZM308.399 77.4524L309.233 77.2011L309.312 77.4547L308.478 77.706L308.399 77.4524Z" fill="#F3F3F1"/>
<path d="M310.706 76.7327L309.778 77.5208L309.684 77.2169L310.328 76.7055L310.323 76.7242L310.312 76.6867L310.327 76.6995L309.503 76.6302L309.41 76.3263L310.625 76.4686L310.706 76.7327Z" fill="#F3F3F1"/>
<path d="M311.056 77.3121L310.582 75.7754L311.614 75.4644L311.697 75.7323L310.994 75.944L311.107 76.3101L311.741 76.1191L311.824 76.387L311.19 76.578L311.386 77.2128L311.056 77.3121Z" fill="#F3F3F1"/>
<path d="M312.113 76.9935L311.758 75.841L312.072 75.7463L312.134 75.9474L312.146 75.9437C312.146 75.8657 312.165 75.8009 312.204 75.7493C312.242 75.6971 312.295 75.6612 312.36 75.6415C312.376 75.6366 312.394 75.6323 312.414 75.6287C312.433 75.625 312.45 75.6228 312.466 75.622L312.553 75.9056C312.536 75.9057 312.514 75.9081 312.486 75.9127C312.458 75.9173 312.433 75.9229 312.411 75.9297C312.363 75.944 312.324 75.9671 312.292 75.9989C312.261 76.0301 312.241 76.067 312.23 76.1096C312.22 76.152 312.222 76.1967 312.236 76.2438L312.438 76.8958L312.113 76.9935Z" fill="#F3F3F1"/>
<path d="M313.3 76.6607C313.181 76.6963 313.072 76.7023 312.97 76.6788C312.869 76.6546 312.781 76.605 312.707 76.5301C312.633 76.4546 312.577 76.3578 312.541 76.2398C312.504 76.1207 312.495 76.0096 312.515 75.9065C312.534 75.8029 312.578 75.7135 312.649 75.6381C312.72 75.5621 312.814 75.5063 312.932 75.4707C313.051 75.435 313.16 75.4293 313.262 75.4535C313.363 75.477 313.451 75.5265 313.525 75.602C313.599 75.677 313.655 75.774 313.692 75.893C313.728 76.0111 313.737 76.1219 313.718 76.2255C313.698 76.3286 313.653 76.4182 313.583 76.4942C313.512 76.5696 313.418 76.625 313.3 76.6607ZM313.225 76.4126C313.279 76.3964 313.319 76.3679 313.346 76.327C313.372 76.2856 313.387 76.2359 313.389 76.1779C313.391 76.1197 313.382 76.0571 313.361 75.9901C313.341 75.9231 313.313 75.8661 313.278 75.8192C313.243 75.7722 313.203 75.7389 313.158 75.7192C313.113 75.6996 313.063 75.6978 313.009 75.7141C312.955 75.7304 312.914 75.7594 312.886 75.8011C312.859 75.8426 312.844 75.8925 312.842 75.9506C312.84 76.0087 312.849 76.0712 312.87 76.1382C312.89 76.2053 312.918 76.2623 312.952 76.3093C312.987 76.3562 313.028 76.3894 313.074 76.4089C313.12 76.4277 313.17 76.429 313.225 76.4126Z" fill="#F3F3F1"/>
<path d="M314.026 75.6889L314.232 76.3552L313.907 76.4529L313.552 75.3004L313.861 75.2073L313.924 75.4107L313.937 75.4065C313.942 75.3317 313.97 75.2656 314.018 75.2083C314.067 75.1504 314.135 75.1084 314.222 75.0822C314.303 75.0578 314.379 75.054 314.45 75.0708C314.521 75.0876 314.584 75.1235 314.637 75.1784C314.691 75.2329 314.731 75.3049 314.759 75.3944L314.985 76.1282L314.661 76.2259L314.452 75.5491C314.431 75.4784 314.396 75.4289 314.346 75.4005C314.297 75.3717 314.24 75.367 314.175 75.3866C314.131 75.3998 314.096 75.4206 314.068 75.4492C314.04 75.4777 314.023 75.5125 314.015 75.5537C314.008 75.5942 314.011 75.6393 314.026 75.6889Z" fill="#F3F3F1"/>
<path d="M315.335 74.763L315.41 75.0031L314.706 75.2152L314.631 74.9751L315.335 74.763ZM314.706 74.6509L315.03 74.5532L315.362 75.6276C315.371 75.6572 315.383 75.6788 315.397 75.6925C315.411 75.7058 315.427 75.7132 315.445 75.7148C315.464 75.7163 315.484 75.7137 315.506 75.7072C315.521 75.7026 315.536 75.6967 315.551 75.6897C315.565 75.6821 315.576 75.6763 315.584 75.6723L315.708 75.8948C315.693 75.9047 315.672 75.9174 315.645 75.9327C315.617 75.9486 315.583 75.9636 315.541 75.9778C315.464 76.0044 315.392 76.0148 315.326 76.009C315.261 76.003 315.204 75.9802 315.156 75.9405C315.109 75.9007 315.073 75.843 315.051 75.7673L314.706 74.6509Z" fill="#F3F3F1"/>
<path d="M315.905 74.1714L316.38 75.708L316.055 75.8057L315.581 74.2691L315.905 74.1714Z" fill="#F3F3F1"/>
<path d="M317.008 75.5434C316.887 75.5797 316.776 75.5868 316.675 75.565C316.574 75.5424 316.486 75.4939 316.412 75.4195C316.338 75.3445 316.282 75.2462 316.244 75.1247C316.208 75.0061 316.199 74.8951 316.218 74.7914C316.237 74.6878 316.281 74.5983 316.351 74.5227C316.421 74.447 316.513 74.3919 316.627 74.3573C316.705 74.3341 316.78 74.3247 316.854 74.3292C316.929 74.333 316.998 74.3517 317.063 74.3852C317.128 74.4186 317.186 74.4679 317.236 74.533C317.287 74.5976 317.327 74.679 317.358 74.777L317.385 74.8648L316.397 75.1622L316.336 74.9641L317.018 74.7587C317.004 74.7126 316.981 74.6749 316.95 74.6455C316.919 74.6161 316.882 74.5969 316.84 74.5877C316.798 74.5779 316.754 74.5801 316.706 74.5943C316.657 74.6092 316.617 74.6336 316.586 74.6675C316.555 74.7009 316.535 74.7395 316.525 74.7834C316.515 74.8269 316.517 74.8714 316.531 74.9171L316.589 75.1054C316.606 75.1624 316.632 75.2085 316.666 75.2436C316.701 75.2785 316.741 75.3013 316.788 75.3119C316.835 75.3225 316.885 75.3196 316.939 75.3032C316.975 75.2924 317.007 75.2774 317.034 75.2584C317.06 75.2394 317.081 75.2167 317.097 75.1902C317.112 75.1638 317.12 75.1344 317.123 75.102L317.428 75.0312C317.435 75.1068 317.423 75.1782 317.392 75.2455C317.362 75.3121 317.314 75.3713 317.249 75.4231C317.184 75.4743 317.104 75.5144 317.008 75.5434Z" fill="#F3F3F1"/>
<path d="M318.296 74.2302L318.004 74.3377C317.992 74.3142 317.974 74.295 317.951 74.28C317.928 74.2645 317.901 74.2549 317.87 74.2512C317.839 74.2468 317.805 74.2502 317.767 74.2616C317.717 74.2767 317.678 74.3 317.65 74.3314C317.622 74.3623 317.613 74.395 317.624 74.4295C317.632 74.457 317.65 74.4769 317.679 74.4892C317.707 74.5015 317.75 74.5052 317.808 74.5003L318.032 74.4786C318.153 74.4674 318.249 74.4788 318.321 74.513C318.392 74.5473 318.441 74.6059 318.466 74.6889C318.49 74.7644 318.488 74.8375 318.46 74.9082C318.433 74.9786 318.385 75.0417 318.317 75.0972C318.249 75.1521 318.164 75.1949 318.063 75.2254C317.908 75.2721 317.775 75.2774 317.664 75.2416C317.553 75.2051 317.472 75.1342 317.422 75.0289L317.736 74.9163C317.76 74.9599 317.795 74.9884 317.839 75.0017C317.884 75.0146 317.935 75.0123 317.993 74.9949C318.049 74.9777 318.092 74.9532 318.12 74.9213C318.148 74.8888 318.157 74.8551 318.147 74.8205C318.137 74.7916 318.118 74.7716 318.088 74.7604C318.057 74.7488 318.015 74.7456 317.961 74.7509L317.747 74.7721C317.626 74.784 317.529 74.7706 317.456 74.7319C317.383 74.693 317.334 74.6305 317.307 74.5445C317.284 74.4705 317.285 74.4006 317.309 74.3348C317.334 74.2689 317.378 74.2103 317.444 74.159C317.509 74.1075 317.592 74.0667 317.692 74.0366C317.84 73.9921 317.965 73.9878 318.069 74.0238C318.173 74.0597 318.249 74.1285 318.296 74.2302Z" fill="#F3F3F1"/>
<path d="M319.2 73.5986L319.274 73.8387L318.57 74.0508L318.496 73.8107L319.2 73.5986ZM318.571 73.4864L318.895 73.3887L319.226 74.4632C319.236 74.4927 319.247 74.5143 319.261 74.5281C319.276 74.5413 319.292 74.5488 319.31 74.5504C319.329 74.5518 319.349 74.5493 319.371 74.5427C319.386 74.5381 319.401 74.5323 319.415 74.5252C319.43 74.5176 319.441 74.5118 319.448 74.5079L319.573 74.7304C319.558 74.7403 319.537 74.7529 319.509 74.7683C319.482 74.7841 319.448 74.7992 319.406 74.8134C319.329 74.8399 319.257 74.8503 319.191 74.8445C319.125 74.8386 319.069 74.8158 319.021 74.776C318.973 74.7363 318.938 74.6786 318.915 74.6029L318.571 73.4864Z" fill="#F3F3F1"/>
<path d="M320.118 74.6062C320 74.6418 319.89 74.6479 319.788 74.6244C319.687 74.6002 319.6 74.5506 319.525 74.4756C319.451 74.4001 319.396 74.3034 319.359 74.1853C319.323 74.0663 319.314 73.9552 319.333 73.8521C319.352 73.7485 319.397 73.659 319.467 73.5837C319.538 73.5076 319.633 73.4518 319.751 73.4162C319.869 73.3806 319.979 73.3749 320.08 73.3991C320.181 73.4226 320.269 73.4721 320.344 73.5476C320.418 73.6225 320.473 73.7196 320.51 73.8386C320.546 73.9567 320.555 74.0675 320.536 74.1711C320.517 74.2742 320.472 74.3637 320.401 74.4398C320.331 74.5151 320.236 74.5706 320.118 74.6062ZM320.043 74.3582C320.097 74.342 320.137 74.3134 320.164 74.2725C320.191 74.2312 320.205 74.1815 320.207 74.1235C320.21 74.0653 320.2 74.0027 320.18 73.9356C320.159 73.8686 320.131 73.8117 320.096 73.7648C320.062 73.7178 320.022 73.6844 319.976 73.6648C319.931 73.6451 319.881 73.6434 319.828 73.6596C319.773 73.676 319.732 73.705 319.705 73.7467C319.678 73.7882 319.663 73.838 319.66 73.8962C319.658 73.9542 319.667 74.0168 319.688 74.0838C319.709 74.1508 319.736 74.2078 319.771 74.2549C319.806 74.3017 319.846 74.3349 319.892 74.3544C319.939 74.3733 319.989 74.3745 320.043 74.3582Z" fill="#F3F3F1"/>
<path d="M321.324 73.6819L321.12 73.0201L321.444 72.9224L321.8 74.0749L321.488 74.1687L321.424 73.9594L321.412 73.963C321.406 74.0385 321.379 74.106 321.33 74.1655C321.282 74.2249 321.214 74.2678 321.126 74.2942C321.048 74.3178 320.974 74.321 320.904 74.3039C320.834 74.2867 320.772 74.251 320.718 74.1965C320.665 74.1419 320.625 74.0697 320.597 73.9798L320.37 73.246L320.694 73.1483L320.903 73.8251C320.925 73.893 320.96 73.9412 321.009 73.9697C321.057 73.9982 321.112 74.0032 321.174 73.9847C321.213 73.9729 321.247 73.9532 321.275 73.9254C321.304 73.8972 321.323 73.8624 321.333 73.8211C321.343 73.7797 321.34 73.7333 321.324 73.6819Z" fill="#F3F3F1"/>
<path d="M322.606 72.9315L322.315 73.0389C322.302 73.0155 322.284 72.9962 322.261 72.9813C322.238 72.9658 322.211 72.9562 322.18 72.9525C322.149 72.9481 322.115 72.9515 322.078 72.9628C322.027 72.978 321.988 73.0012 321.96 73.0326C321.932 73.0635 321.923 73.0962 321.934 73.1308C321.942 73.1583 321.961 73.1782 321.989 73.1905C322.017 73.2027 322.06 73.2065 322.118 73.2016L322.342 73.1799C322.463 73.1686 322.559 73.1801 322.631 73.2143C322.702 73.2485 322.751 73.3071 322.777 73.3902C322.8 73.4657 322.798 73.5388 322.77 73.6094C322.743 73.6799 322.696 73.7429 322.627 73.7985C322.559 73.8534 322.475 73.8961 322.373 73.9267C322.218 73.9733 322.085 73.9787 321.974 73.9429C321.863 73.9063 321.782 73.8354 321.733 73.7301L322.047 73.6175C322.071 73.6612 322.105 73.6896 322.149 73.703C322.194 73.7158 322.245 73.7135 322.303 73.6961C322.36 73.679 322.402 73.6545 322.43 73.6226C322.458 73.59 322.467 73.5564 322.457 73.5217C322.448 73.4929 322.428 73.4729 322.398 73.4617C322.368 73.45 322.326 73.4468 322.272 73.4521L322.057 73.4733C321.936 73.4852 321.839 73.4718 321.766 73.4331C321.694 73.3943 321.644 73.3318 321.617 73.2458C321.595 73.1717 321.595 73.1019 321.619 73.0361C321.644 72.9702 321.689 72.9116 321.754 72.8602C321.82 72.8088 321.902 72.768 322.002 72.7378C322.15 72.6933 322.276 72.6891 322.379 72.7251C322.484 72.7609 322.559 72.8297 322.606 72.9315Z" fill="#F3F3F1"/>
<path d="M323.157 71.9863L323.46 73.0712L323.181 73.1551L322.819 72.0883L323.157 71.9863ZM323.469 73.5934C323.418 73.6085 323.37 73.604 323.323 73.5798C323.276 73.5552 323.245 73.518 323.23 73.4683C323.215 73.4195 323.22 73.3721 323.245 73.3262C323.27 73.2803 323.308 73.2499 323.358 73.2347C323.406 73.2202 323.454 73.2249 323.501 73.2489C323.549 73.2729 323.58 73.3094 323.596 73.3583C323.605 73.3914 323.606 73.4244 323.597 73.4571C323.589 73.4891 323.573 73.5175 323.551 73.5423C323.529 73.5666 323.501 73.5836 323.469 73.5934Z" fill="#F3F3F1"/>
<path d="M323.962 72.7386L323.881 72.4745L324.809 71.6864L324.902 71.9903L324.258 72.5017L324.263 72.483L324.275 72.5205L324.26 72.5077L325.083 72.577L325.177 72.8809L323.962 72.7386Z" fill="#F3F3F1"/>
<path d="M325.56 71.1837L325.625 73.1748L325.346 73.259L325.281 71.2678L325.56 71.1837Z" fill="#F3F3F1"/>
<path d="M327.027 71.9726L326.099 72.7607L326.005 72.4568L326.649 71.9453L326.644 71.9641L326.633 71.9266L326.647 71.9393L325.824 71.87L325.73 71.5661L326.946 71.7085L327.027 71.9726Z" fill="#F3F3F1"/>
<path d="M324.79 63.1631L323.028 63.6665C323.896 65.1743 324.761 66.6793 325.624 68.1822L328.319 67.4145C328.26 66.096 328.2 64.7784 328.141 63.4592C328.122 63.0484 328.103 62.6375 328.085 62.2264C327.795 62.3093 327.504 62.392 327.214 62.4747C326.919 62.5587 326.623 62.6427 326.328 62.7271C326.366 63.2802 326.414 63.8473 326.473 64.4294C326.535 65.0443 326.608 65.6418 326.687 66.2192L326.357 66.3107C326.133 65.772 325.874 65.2055 325.579 64.6188C325.319 64.1002 325.054 63.6154 324.79 63.1631Z" fill="#F3F3F1"/>
<path d="M313.575 53.7061L311.015 54.4736C310.868 54.5177 310.766 54.6517 310.768 54.8034C310.796 57.1769 311.351 58.2895 313.793 59.2932C313.887 59.3319 313.996 59.3268 314.086 59.2793C316.278 58.1213 316.736 56.9623 316.67 54.5769C316.666 54.4195 316.552 54.2863 316.395 54.2535L313.749 53.6987C313.691 53.6865 313.631 53.6891 313.575 53.7061Z" fill="#F588B9"/>
<path d="M314.869 54.7721L313.401 54.9575L312.872 56.7212L313.616 56.6272L313.272 58.0766L314.777 55.9715L313.844 56.0893L314.869 54.7721Z" fill="#F3F3F1"/>
<path d="M309.707 29.5107C314.056 39.7463 309.276 51.566 299.031 55.9108C288.786 60.2556 276.956 55.4801 272.607 45.2445C268.258 35.0089 273.038 23.1891 283.283 18.8443C293.528 14.4996 305.358 19.2751 309.707 29.5107Z" fill="#9FA8FE"/>
<path d="M285.35 39.77L287.497 37.2404C287.525 37.2064 287.532 37.1596 287.515 37.119L286.959 35.8483C286.923 35.7657 286.809 35.7511 286.752 35.822L283.183 40.2758C283.156 40.3096 283.15 40.3551 283.167 40.3946L283.553 41.2755C283.571 41.3176 283.613 41.3456 283.66 41.3472L289.26 41.5383C289.349 41.5414 289.41 41.4536 289.376 41.3741L288.816 40.0943C288.797 40.0515 288.754 40.0234 288.707 40.0226L285.441 39.9632C285.34 39.9614 285.286 39.8462 285.35 39.77Z" fill="#9FA8FE"/>
<path d="M285.35 39.77L287.497 37.2404C287.525 37.2064 287.532 37.1596 287.515 37.119L286.959 35.8483C286.923 35.7657 286.809 35.7511 286.752 35.822L283.183 40.2758C283.156 40.3096 283.15 40.3551 283.167 40.3946L283.553 41.2755C283.571 41.3176 283.613 41.3456 283.66 41.3472L289.26 41.5383C289.349 41.5414 289.41 41.4536 289.376 41.3741L288.816 40.0943C288.797 40.0515 288.754 40.0234 288.707 40.0226L285.441 39.9632C285.34 39.9614 285.286 39.8462 285.35 39.77Z" fill="#9FA8FE"/>
<path d="M285.35 39.77L287.497 37.2404C287.525 37.2064 287.532 37.1596 287.515 37.119L286.959 35.8483C286.923 35.7657 286.809 35.7511 286.752 35.822L283.183 40.2758C283.156 40.3096 283.15 40.3551 283.167 40.3946L283.553 41.2755C283.571 41.3176 283.613 41.3456 283.66 41.3472L289.26 41.5383C289.349 41.5414 289.41 41.4536 289.376 41.3741L288.816 40.0943C288.797 40.0515 288.754 40.0234 288.707 40.0226L285.441 39.9632C285.34 39.9614 285.286 39.8462 285.35 39.77Z" fill="#ECFFCE"/>
<path d="M296.91 34.9727L293.55 34.7281C293.505 34.7248 293.465 34.6973 293.448 34.6567L292.892 33.3861C292.856 33.3034 292.924 33.2132 293.016 33.2224L298.785 33.8007C298.829 33.8051 298.867 33.8323 298.884 33.8718L299.27 34.7526C299.288 34.7948 299.28 34.8435 299.248 34.8776L295.51 38.9443C295.451 39.0087 295.344 38.9913 295.309 38.9119L294.749 37.632C294.73 37.5892 294.739 37.5397 294.772 37.5056L296.99 35.1705C297.058 35.098 297.011 34.98 296.91 34.9727Z" fill="#9FA8FE"/>
<path d="M296.91 34.9727L293.55 34.7281C293.505 34.7248 293.465 34.6973 293.448 34.6567L292.892 33.3861C292.856 33.3034 292.924 33.2132 293.016 33.2224L298.785 33.8007C298.829 33.8051 298.867 33.8323 298.884 33.8718L299.27 34.7526C299.288 34.7948 299.28 34.8435 299.248 34.8776L295.51 38.9443C295.451 39.0087 295.344 38.9913 295.309 38.9119L294.749 37.632C294.73 37.5892 294.739 37.5397 294.772 37.5056L296.99 35.1705C297.058 35.098 297.011 34.98 296.91 34.9727Z" fill="#9FA8FE"/>
<path d="M296.91 34.9727L293.55 34.7281C293.505 34.7248 293.465 34.6973 293.448 34.6567L292.892 33.3861C292.856 33.3034 292.924 33.2132 293.016 33.2224L298.785 33.8007C298.829 33.8051 298.867 33.8323 298.884 33.8718L299.27 34.7526C299.288 34.7948 299.28 34.8435 299.248 34.8776L295.51 38.9443C295.451 39.0087 295.344 38.9913 295.309 38.9119L294.749 37.632C294.73 37.5892 294.739 37.5397 294.772 37.5056L296.99 35.1705C297.058 35.098 297.011 34.98 296.91 34.9727Z" fill="#ECFFCE"/>
<path d="M291.449 33.0485L290.125 33.598C290.078 33.6175 290.048 33.6633 290.051 33.7128L290.509 42.1311C290.513 42.2129 290.6 42.2656 290.677 42.2334L292.001 41.684C292.048 41.6645 292.077 41.6187 292.075 41.5692L291.617 33.1509C291.613 33.069 291.526 33.0164 291.449 33.0485Z" fill="#ECFFCE"/>
<defs>
<clipPath id="clip0_2029_10">
<rect width="28" height="28" fill="white" transform="translate(236.75 314) rotate(13.95)"/>
</clipPath>
<clipPath id="clip1_2029_10">
<rect width="28" height="28" fill="white" transform="translate(90.75 6) rotate(13.95)"/>
</clipPath>
</defs>
</svg>
